<svg width="913" height="254" viewBox="0 0 913 254" fill="none" xmlns="http://www.w3.org/2000/svg">
<path d="M350.336 74.728V151.816C350.336 170.12 345.232 183.848 335.024 193C324.933 202.269 310.501 206.904 291.728 206.904C282.107 206.904 273.131 205.848 264.8 203.736C256.469 201.741 249.371 198.808 243.504 194.936L256.88 167.832C260.635 170.648 265.387 172.936 271.136 174.696C276.885 176.456 282.4 177.336 287.68 177.336C295.659 177.336 301.467 175.635 305.104 172.232C308.741 168.829 310.56 163.843 310.56 157.272V155.512C304.576 162.317 295.717 165.72 283.984 165.72C275.771 165.72 268.085 163.843 260.928 160.088C253.888 156.216 248.256 150.76 244.032 143.72C239.808 136.563 237.696 128.408 237.696 119.256C237.696 110.104 239.808 102.008 244.032 94.968C248.256 87.928 253.888 82.5307 260.928 78.776C268.085 74.904 275.771 72.968 283.984 72.968C297.125 72.968 306.629 77.192 312.496 85.64V74.728H350.336ZM294.544 134.744C299.237 134.744 303.109 133.336 306.16 130.52C309.328 127.587 310.912 123.832 310.912 119.256C310.912 114.68 309.328 110.984 306.16 108.168C303.109 105.352 299.237 103.944 294.544 103.944C289.733 103.944 285.744 105.352 282.576 108.168C279.525 110.984 278 114.68 278 119.256C278 123.832 279.584 127.587 282.752 130.52C285.92 133.336 289.851 134.744 294.544 134.744ZM367.925 40.408H407.701V171H367.925V40.408ZM425.331 74.728H465.107V171H425.331V74.728ZM445.219 66.984C438.062 66.984 432.254 65.1067 427.795 61.352C423.454 57.48 421.283 52.6107 421.283 46.744C421.283 40.8773 423.454 36.0667 427.795 32.312C432.254 28.44 438.062 26.504 445.219 26.504C452.494 26.504 458.302 28.3227 462.643 31.96C466.985 35.5973 469.155 40.2907 469.155 46.04C469.155 52.1413 466.985 57.1867 462.643 61.176C458.302 65.048 452.494 66.984 445.219 66.984ZM520.401 172.76C512.188 172.76 504.092 171.88 496.114 170.12C488.135 168.36 481.682 166.072 476.754 163.256L487.666 137.032C492.124 139.731 497.404 141.843 503.506 143.368C509.607 144.893 515.532 145.656 521.282 145.656C525.858 145.656 529.026 145.304 530.786 144.6C532.663 143.779 533.602 142.605 533.602 141.08C533.602 139.555 532.428 138.499 530.082 137.912C527.852 137.325 524.156 136.739 518.994 136.152C511.132 135.213 504.444 134.04 498.93 132.632C493.415 131.107 488.546 128.232 484.322 124.008C480.215 119.784 478.162 113.741 478.162 105.88C478.162 99.6613 480.039 94.088 483.794 89.16C487.548 84.232 493.122 80.3013 500.514 77.368C508.023 74.4347 516.999 72.968 527.442 72.968C534.716 72.968 541.815 73.672 548.738 75.08C555.778 76.3707 561.762 78.3067 566.69 80.888L555.778 107.112C547.33 102.419 538.06 100.072 527.97 100.072C519.287 100.072 514.946 101.597 514.946 104.648C514.946 106.173 516.119 107.288 518.466 107.992C520.812 108.579 524.508 109.165 529.554 109.752C537.415 110.691 544.044 111.923 549.442 113.448C554.956 114.973 559.767 117.848 563.874 122.072C568.098 126.296 570.21 132.339 570.21 140.2C570.21 146.184 568.332 151.64 564.578 156.568C560.823 161.496 555.191 165.427 547.682 168.36C540.172 171.293 531.079 172.76 520.401 172.76ZM653.181 167.656C647.197 171.059 639.042 172.76 628.717 172.76C615.224 172.76 604.84 169.533 597.565 163.08C590.29 156.509 586.653 146.712 586.653 133.688V109.048H573.453V80.008H586.653V53.08H626.429V80.008H646.141V109.048H626.429V133.336C626.429 136.269 627.192 138.557 628.717 140.2C630.242 141.843 632.237 142.664 634.701 142.664C638.104 142.664 641.096 141.784 643.677 140.024L653.181 167.656ZM763.06 122.776C763.06 123.363 762.884 126.472 762.532 132.104H695.652C697.06 135.741 699.407 138.557 702.692 140.552C705.977 142.429 710.084 143.368 715.012 143.368C719.236 143.368 722.756 142.84 725.572 141.784C728.505 140.728 731.673 138.909 735.076 136.328L755.844 157.272C746.457 167.597 732.436 172.76 713.78 172.76C702.164 172.76 691.956 170.648 683.156 166.424C674.356 162.083 667.551 156.099 662.74 148.472C657.929 140.845 655.524 132.28 655.524 122.776C655.524 113.155 657.871 104.589 662.564 97.08C667.375 89.4533 673.887 83.528 682.1 79.304C690.431 75.08 699.759 72.968 710.084 72.968C719.823 72.968 728.681 74.904 736.66 78.776C744.756 82.648 751.151 88.3387 755.844 95.848C760.655 103.357 763.06 112.333 763.06 122.776ZM710.436 100.072C706.329 100.072 702.927 101.187 700.228 103.416C697.529 105.645 695.769 108.813 694.948 112.92H725.924C725.103 108.931 723.343 105.821 720.644 103.592C717.945 101.245 714.543 100.072 710.436 100.072ZM842.493 72.968C854.343 72.968 863.847 76.5467 871.005 83.704C878.279 90.8613 881.917 101.656 881.917 116.088V171H842.141V122.952C842.141 111.923 838.21 106.408 830.349 106.408C825.89 106.408 822.253 107.992 819.437 111.16C816.738 114.211 815.389 119.08 815.389 125.768V171H775.613V74.728H813.453V84.232C817.207 80.4773 821.549 77.6613 826.477 75.784C831.405 73.9067 836.743 72.968 842.493 72.968Z" fill="black"/>
<path d="M177.348 35H28.6522C20.0078 35 13.0001 42.0077 13.0001 50.6522V199.252C13.0001 207.896 20.0078 214.904 28.6522 214.904H177.348C185.992 214.904 193 207.896 193 199.252V50.6522C193 42.0077 185.992 35 177.348 35Z" fill="white" stroke="black" stroke-width="10"/>
<path d="M57.0174 215.687L13 240.826L13 190.548L57.0174 215.687Z" stroke="black" stroke-width="10"/>
<path d="M63.3913 207.609L18 234.217V181L63.3913 207.609Z" fill="white"/>
<path d="M106.913 117.174C106.913 102.046 94.6494 89.7826 79.5218 89.7826C64.394 89.7826 52.1305 102.046 52.1305 117.174H106.913ZM103.102 140.742L90.7575 165.194L103.102 171.427L115.448 165.194L103.102 140.742ZM154.074 117.174C154.074 102.046 141.811 89.7826 126.683 89.7826C111.555 89.7826 99.2919 102.046 99.2919 117.174H154.074ZM52.1305 117.174C52.1305 129.138 57.9612 138.08 61.839 142.915C66.0465 148.16 70.9778 152.311 74.8469 155.222C78.8752 158.251 82.7564 160.68 85.5463 162.319C86.9695 163.154 88.178 163.825 89.0702 164.307C89.5179 164.549 89.8904 164.746 90.1745 164.894C90.3169 164.968 90.4374 165.03 90.5353 165.08C90.5838 165.106 90.6268 165.127 90.6636 165.146C90.6824 165.156 90.6996 165.164 90.7153 165.172C90.7231 165.176 90.7301 165.18 90.7372 165.184C90.7411 165.185 90.7458 165.188 90.7473 165.188C90.7528 165.191 90.7575 165.194 103.102 140.742C115.448 116.29 115.453 116.293 115.457 116.295C115.458 116.296 115.463 116.298 115.465 116.3C115.471 116.302 115.476 116.305 115.482 116.308C115.491 116.312 115.5 116.317 115.507 116.321C115.522 116.328 115.531 116.333 115.535 116.335C115.544 116.339 115.532 116.333 115.501 116.317C115.44 116.286 115.306 116.214 115.108 116.108C114.711 115.893 114.078 115.543 113.29 115.081C111.659 114.122 109.644 112.846 107.778 111.441C106.86 110.751 106.095 110.118 105.496 109.568C105.203 109.299 104.979 109.078 104.816 108.907C104.736 108.824 104.677 108.758 104.636 108.711C104.614 108.687 104.6 108.669 104.589 108.657C104.578 108.644 104.574 108.638 104.574 108.638C104.574 108.638 104.575 108.64 104.578 108.643C104.581 108.647 104.585 108.652 104.589 108.659C104.6 108.673 104.617 108.695 104.638 108.724C104.679 108.782 104.745 108.876 104.828 109.008C104.989 109.261 105.252 109.71 105.539 110.352C106.104 111.614 106.913 113.975 106.913 117.174H52.1305ZM103.102 140.742C115.448 165.194 115.453 165.191 115.457 165.188C115.459 165.188 115.464 165.185 115.468 165.184C115.475 165.18 115.482 165.176 115.49 165.172C115.505 165.164 115.522 165.156 115.541 165.146C115.578 165.127 115.621 165.106 115.67 165.08C115.767 165.03 115.889 164.968 116.03 164.894C116.315 164.746 116.687 164.549 117.135 164.307C118.027 163.825 119.236 163.154 120.659 162.319C123.449 160.68 127.33 158.251 131.358 155.222C135.228 152.311 140.159 148.16 144.366 142.915C148.244 138.08 154.074 129.138 154.074 117.174H99.2919C99.2919 113.975 100.101 111.614 100.665 110.352C100.953 109.71 101.216 109.261 101.377 109.008C101.46 108.876 101.525 108.782 101.568 108.724C101.589 108.695 101.604 108.673 101.615 108.659C101.621 108.652 101.625 108.647 101.627 108.643C101.63 108.64 101.632 108.638 101.632 108.638C101.632 108.638 101.626 108.644 101.616 108.657C101.606 108.669 101.59 108.687 101.57 108.711C101.529 108.758 101.468 108.824 101.388 108.907C101.226 109.078 101.003 109.299 100.709 109.568C100.11 110.118 99.3459 110.751 98.4279 111.441C96.5606 112.846 94.5469 114.122 92.9152 115.081C92.1279 115.543 91.4939 115.893 91.0972 116.108C90.8999 116.214 90.7653 116.286 90.7043 116.317C90.6738 116.333 90.662 116.339 90.6706 116.335C90.6746 116.333 90.6839 116.328 90.698 116.321C90.7051 116.317 90.7137 116.312 90.7239 116.308C90.7286 116.305 90.734 116.302 90.7395 116.3C90.7426 116.298 90.7466 116.296 90.7481 116.295C90.7528 116.293 90.7575 116.29 103.102 140.742Z" fill="#F23232"/>
</svg>
