<svg width="1155" height="400" viewBox="0 0 1155 400" fill="none" xmlns="http://www.w3.org/2000/svg">
<rect width="1155" height="400" rx="20" fill="white"/>
<path d="M595.264 295.16V307.984C595.264 310.579 594.62 312.492 593.332 313.724C592.044 314.975 590.121 315.6 587.564 315.6C586.164 315.6 584.829 315.404 583.56 315.012C582.29 314.639 581.264 314.097 580.48 313.388L581.768 311.316C582.458 311.913 583.308 312.38 584.316 312.716C585.342 313.071 586.397 313.248 587.48 313.248C589.216 313.248 590.494 312.837 591.316 312.016C592.156 311.195 592.576 309.944 592.576 308.264V307.088C591.941 307.853 591.157 308.432 590.224 308.824C589.309 309.197 588.31 309.384 587.228 309.384C585.809 309.384 584.521 309.085 583.364 308.488C582.225 307.872 581.329 307.023 580.676 305.94C580.022 304.839 579.696 303.588 579.696 302.188C579.696 300.788 580.022 299.547 580.676 298.464C581.329 297.363 582.225 296.513 583.364 295.916C584.521 295.319 585.809 295.02 587.228 295.02C588.348 295.02 589.384 295.225 590.336 295.636C591.306 296.047 592.1 296.653 592.716 297.456V295.16H595.264ZM587.536 307.032C588.506 307.032 589.374 306.827 590.14 306.416C590.924 306.005 591.53 305.436 591.96 304.708C592.408 303.961 592.632 303.121 592.632 302.188C592.632 300.751 592.156 299.593 591.204 298.716C590.252 297.82 589.029 297.372 587.536 297.372C586.024 297.372 584.792 297.82 583.84 298.716C582.888 299.593 582.412 300.751 582.412 302.188C582.412 303.121 582.626 303.961 583.056 304.708C583.504 305.436 584.11 306.005 584.876 306.416C585.66 306.827 586.546 307.032 587.536 307.032ZM600.4 295.16H603.088V310H600.4V295.16ZM601.744 292.304C601.221 292.304 600.782 292.136 600.428 291.8C600.092 291.464 599.924 291.053 599.924 290.568C599.924 290.083 600.092 289.672 600.428 289.336C600.782 288.981 601.221 288.804 601.744 288.804C602.266 288.804 602.696 288.972 603.032 289.308C603.386 289.625 603.564 290.027 603.564 290.512C603.564 291.016 603.386 291.445 603.032 291.8C602.696 292.136 602.266 292.304 601.744 292.304ZM616.564 309.132C616.172 309.468 615.687 309.729 615.108 309.916C614.529 310.084 613.932 310.168 613.316 310.168C611.823 310.168 610.665 309.767 609.844 308.964C609.023 308.161 608.612 307.013 608.612 305.52V297.372H606.092V295.16H608.612V291.912H611.3V295.16H615.556V297.372H611.3V305.408C611.3 306.211 611.496 306.827 611.888 307.256C612.299 307.685 612.877 307.9 613.624 307.9C614.445 307.9 615.145 307.667 615.724 307.2L616.564 309.132ZM627.738 295.02C629.623 295.02 631.116 295.571 632.218 296.672C633.338 297.755 633.898 299.351 633.898 301.46V310H631.21V301.768C631.21 300.331 630.864 299.248 630.174 298.52C629.483 297.792 628.494 297.428 627.206 297.428C625.75 297.428 624.602 297.857 623.762 298.716C622.922 299.556 622.502 300.769 622.502 302.356V310H619.814V289.224H622.502V297.26C623.062 296.551 623.79 296 624.686 295.608C625.6 295.216 626.618 295.02 627.738 295.02ZM652.704 295.16V310H650.156V307.76C649.615 308.525 648.896 309.123 648 309.552C647.123 309.963 646.162 310.168 645.116 310.168C643.138 310.168 641.579 309.627 640.44 308.544C639.302 307.443 638.732 305.828 638.732 303.7V295.16H641.42V303.392C641.42 304.829 641.766 305.921 642.456 306.668C643.147 307.396 644.136 307.76 645.424 307.76C646.843 307.76 647.963 307.331 648.784 306.472C649.606 305.613 650.016 304.4 650.016 302.832V295.16H652.704ZM665.689 295.02C667.127 295.02 668.415 295.337 669.553 295.972C670.692 296.607 671.579 297.493 672.213 298.632C672.867 299.771 673.193 301.087 673.193 302.58C673.193 304.073 672.867 305.399 672.213 306.556C671.579 307.695 670.692 308.581 669.553 309.216C668.415 309.851 667.127 310.168 665.689 310.168C664.588 310.168 663.58 309.953 662.665 309.524C661.751 309.095 660.995 308.469 660.397 307.648V310H657.821V289.224H660.509V297.4C661.107 296.616 661.853 296.028 662.749 295.636C663.645 295.225 664.625 295.02 665.689 295.02ZM665.465 307.816C666.417 307.816 667.267 307.601 668.013 307.172C668.779 306.724 669.376 306.108 669.805 305.324C670.253 304.521 670.477 303.607 670.477 302.58C670.477 301.553 670.253 300.648 669.805 299.864C669.376 299.061 668.779 298.445 668.013 298.016C667.267 297.587 666.417 297.372 665.465 297.372C664.532 297.372 663.683 297.587 662.917 298.016C662.152 298.445 661.555 299.061 661.125 299.864C660.696 300.648 660.481 301.553 660.481 302.58C660.481 303.607 660.696 304.521 661.125 305.324C661.555 306.108 662.152 306.724 662.917 307.172C663.683 307.601 664.532 307.816 665.465 307.816ZM677.223 310.168C676.701 310.168 676.253 309.991 675.879 309.636C675.506 309.263 675.319 308.796 675.319 308.236C675.319 307.695 675.506 307.247 675.879 306.892C676.253 306.519 676.701 306.332 677.223 306.332C677.746 306.332 678.185 306.509 678.539 306.864C678.894 307.219 679.071 307.676 679.071 308.236C679.071 308.796 678.885 309.263 678.511 309.636C678.157 309.991 677.727 310.168 677.223 310.168ZM689.063 310.168C687.551 310.168 686.198 309.841 685.003 309.188C683.827 308.535 682.903 307.639 682.231 306.5C681.559 305.343 681.223 304.036 681.223 302.58C681.223 301.124 681.559 299.827 682.231 298.688C682.903 297.531 683.827 296.635 685.003 296C686.198 295.347 687.551 295.02 689.063 295.02C690.407 295.02 691.602 295.291 692.647 295.832C693.711 296.373 694.532 297.157 695.111 298.184L693.067 299.5C692.6 298.791 692.022 298.259 691.331 297.904C690.64 297.549 689.875 297.372 689.035 297.372C688.064 297.372 687.187 297.587 686.403 298.016C685.638 298.445 685.031 299.061 684.583 299.864C684.154 300.648 683.939 301.553 683.939 302.58C683.939 303.625 684.154 304.549 684.583 305.352C685.031 306.136 685.638 306.743 686.403 307.172C687.187 307.601 688.064 307.816 689.035 307.816C689.875 307.816 690.64 307.639 691.331 307.284C692.022 306.929 692.6 306.397 693.067 305.688L695.111 306.976C694.532 308.003 693.711 308.796 692.647 309.356C691.602 309.897 690.407 310.168 689.063 310.168ZM704.728 310.168C703.254 310.168 701.928 309.841 700.752 309.188C699.576 308.535 698.652 307.639 697.98 306.5C697.327 305.343 697 304.036 697 302.58C697 301.124 697.327 299.827 697.98 298.688C698.652 297.531 699.576 296.635 700.752 296C701.928 295.347 703.254 295.02 704.728 295.02C706.203 295.02 707.519 295.347 708.676 296C709.852 296.635 710.767 297.531 711.42 298.688C712.092 299.827 712.428 301.124 712.428 302.58C712.428 304.036 712.092 305.343 711.42 306.5C710.767 307.639 709.852 308.535 708.676 309.188C707.519 309.841 706.203 310.168 704.728 310.168ZM704.728 307.816C705.68 307.816 706.53 307.601 707.276 307.172C708.042 306.724 708.639 306.108 709.068 305.324C709.498 304.521 709.712 303.607 709.712 302.58C709.712 301.553 709.498 300.648 709.068 299.864C708.639 299.061 708.042 298.445 707.276 298.016C706.53 297.587 705.68 297.372 704.728 297.372C703.776 297.372 702.918 297.587 702.152 298.016C701.406 298.445 700.808 299.061 700.36 299.864C699.931 300.648 699.716 301.553 699.716 302.58C699.716 303.607 699.931 304.521 700.36 305.324C700.808 306.108 701.406 306.724 702.152 307.172C702.918 307.601 703.776 307.816 704.728 307.816ZM734.71 295.02C736.576 295.02 738.051 295.561 739.134 296.644C740.235 297.727 740.786 299.332 740.786 301.46V310H738.098V301.768C738.098 300.331 737.762 299.248 737.09 298.52C736.436 297.792 735.494 297.428 734.262 297.428C732.899 297.428 731.816 297.857 731.014 298.716C730.211 299.556 729.81 300.769 729.81 302.356V310H727.122V301.768C727.122 300.331 726.786 299.248 726.114 298.52C725.46 297.792 724.518 297.428 723.286 297.428C721.923 297.428 720.84 297.857 720.038 298.716C719.235 299.556 718.834 300.769 718.834 302.356V310H716.146V295.16H718.722V297.372C719.263 296.607 719.972 296.028 720.85 295.636C721.727 295.225 722.726 295.02 723.846 295.02C725.003 295.02 726.03 295.253 726.926 295.72C727.822 296.187 728.512 296.868 728.998 297.764C729.558 296.905 730.332 296.233 731.322 295.748C732.33 295.263 733.459 295.02 734.71 295.02ZM751.64 286.424H754.076L744.836 312.8H742.4L751.64 286.424ZM761.132 310.224C759.658 310.224 758.23 310 756.848 309.552C755.486 309.085 754.412 308.488 753.628 307.76L754.664 305.576C755.411 306.248 756.363 306.799 757.52 307.228C758.696 307.639 759.9 307.844 761.132 307.844C762.756 307.844 763.97 307.573 764.772 307.032C765.575 306.472 765.976 305.735 765.976 304.82C765.976 304.148 765.752 303.607 765.304 303.196C764.875 302.767 764.334 302.44 763.68 302.216C763.046 301.992 762.14 301.74 760.964 301.46C759.49 301.105 758.295 300.751 757.38 300.396C756.484 300.041 755.71 299.5 755.056 298.772C754.422 298.025 754.104 297.027 754.104 295.776C754.104 294.731 754.375 293.788 754.916 292.948C755.476 292.108 756.316 291.436 757.436 290.932C758.556 290.428 759.947 290.176 761.608 290.176C762.766 290.176 763.904 290.325 765.024 290.624C766.144 290.923 767.106 291.352 767.908 291.912L766.984 294.152C766.163 293.629 765.286 293.237 764.352 292.976C763.419 292.696 762.504 292.556 761.608 292.556C760.022 292.556 758.827 292.845 758.024 293.424C757.24 294.003 756.848 294.749 756.848 295.664C756.848 296.336 757.072 296.887 757.52 297.316C757.968 297.727 758.519 298.053 759.172 298.296C759.844 298.52 760.75 298.763 761.888 299.024C763.363 299.379 764.548 299.733 765.444 300.088C766.34 300.443 767.106 300.984 767.74 301.712C768.394 302.44 768.72 303.42 768.72 304.652C768.72 305.679 768.44 306.621 767.88 307.48C767.32 308.32 766.471 308.992 765.332 309.496C764.194 309.981 762.794 310.224 761.132 310.224ZM777.823 295.02C779.876 295.02 781.444 295.524 782.527 296.532C783.628 297.54 784.179 299.043 784.179 301.04V310H781.631V308.04C781.183 308.731 780.539 309.263 779.699 309.636C778.878 309.991 777.898 310.168 776.759 310.168C775.098 310.168 773.763 309.767 772.755 308.964C771.766 308.161 771.271 307.107 771.271 305.8C771.271 304.493 771.747 303.448 772.699 302.664C773.651 301.861 775.163 301.46 777.235 301.46H781.491V300.928C781.491 299.771 781.155 298.884 780.483 298.268C779.811 297.652 778.822 297.344 777.515 297.344C776.638 297.344 775.779 297.493 774.939 297.792C774.099 298.072 773.39 298.455 772.811 298.94L771.691 296.924C772.456 296.308 773.371 295.841 774.435 295.524C775.499 295.188 776.628 295.02 777.823 295.02ZM777.207 308.096C778.234 308.096 779.12 307.872 779.867 307.424C780.614 306.957 781.155 306.304 781.491 305.464V303.392H777.347C775.07 303.392 773.931 304.157 773.931 305.688C773.931 306.435 774.22 307.023 774.799 307.452C775.378 307.881 776.18 308.096 777.207 308.096ZM797.077 295.02C798.963 295.02 800.456 295.571 801.557 296.672C802.677 297.755 803.237 299.351 803.237 301.46V310H800.549V301.768C800.549 300.331 800.204 299.248 799.513 298.52C798.823 297.792 797.833 297.428 796.545 297.428C795.089 297.428 793.941 297.857 793.101 298.716C792.261 299.556 791.841 300.769 791.841 302.356V310H789.153V295.16H791.729V297.4C792.271 296.635 792.999 296.047 793.913 295.636C794.847 295.225 795.901 295.02 797.077 295.02ZM814.65 310.168C813.175 310.168 811.85 309.841 810.674 309.188C809.498 308.535 808.574 307.639 807.902 306.5C807.249 305.343 806.922 304.036 806.922 302.58C806.922 301.124 807.249 299.827 807.902 298.688C808.574 297.531 809.498 296.635 810.674 296C811.85 295.347 813.175 295.02 814.65 295.02C816.125 295.02 817.441 295.347 818.598 296C819.774 296.635 820.689 297.531 821.342 298.688C822.014 299.827 822.35 301.124 822.35 302.58C822.35 304.036 822.014 305.343 821.342 306.5C820.689 307.639 819.774 308.535 818.598 309.188C817.441 309.841 816.125 310.168 814.65 310.168ZM814.65 307.816C815.602 307.816 816.451 307.601 817.198 307.172C817.963 306.724 818.561 306.108 818.99 305.324C819.419 304.521 819.634 303.607 819.634 302.58C819.634 301.553 819.419 300.648 818.99 299.864C818.561 299.061 817.963 298.445 817.198 298.016C816.451 297.587 815.602 297.372 814.65 297.372C813.698 297.372 812.839 297.587 812.074 298.016C811.327 298.445 810.73 299.061 810.282 299.864C809.853 300.648 809.638 301.553 809.638 302.58C809.638 303.607 809.853 304.521 810.282 305.324C810.73 306.108 811.327 306.724 812.074 307.172C812.839 307.601 813.698 307.816 814.65 307.816ZM831.5 291.268C829.894 291.268 829.092 292.136 829.092 293.872V295.16H833.404V297.372H829.148V310H826.46V297.372H823.94V295.16H826.46V293.844C826.46 292.369 826.889 291.203 827.748 290.344C828.606 289.485 829.81 289.056 831.36 289.056C831.957 289.056 832.517 289.131 833.04 289.28C833.562 289.429 834.01 289.644 834.384 289.924L833.572 291.968C832.956 291.501 832.265 291.268 831.5 291.268ZM838.192 295.16H840.88V310H838.192V295.16ZM839.536 292.304C839.013 292.304 838.574 292.136 838.22 291.8C837.884 291.464 837.716 291.053 837.716 290.568C837.716 290.083 837.884 289.672 838.22 289.336C838.574 288.981 839.013 288.804 839.536 288.804C840.058 288.804 840.488 288.972 840.824 289.308C841.178 289.625 841.356 290.027 841.356 290.512C841.356 291.016 841.178 291.445 840.824 291.8C840.488 292.136 840.058 292.304 839.536 292.304ZM845.049 301.152H852.581V303.476H845.049V301.152ZM857.112 290.4H859.912V310H857.112V290.4ZM878.268 305.1H867.852L865.696 310H862.812L871.688 290.4H874.46L883.364 310H880.424L878.268 305.1ZM877.288 302.86L873.06 293.256L868.832 302.86H877.288ZM886.288 290.4H894.548C896.62 290.4 898.458 290.811 900.064 291.632C901.669 292.453 902.91 293.611 903.788 295.104C904.684 296.579 905.132 298.277 905.132 300.2C905.132 302.123 904.684 303.831 903.788 305.324C902.91 306.799 901.669 307.947 900.064 308.768C898.458 309.589 896.62 310 894.548 310H886.288V290.4ZM894.38 307.564C895.966 307.564 897.357 307.256 898.552 306.64C899.765 306.024 900.698 305.165 901.352 304.064C902.005 302.944 902.332 301.656 902.332 300.2C902.332 298.744 902.005 297.465 901.352 296.364C900.698 295.244 899.765 294.376 898.552 293.76C897.357 293.144 895.966 292.836 894.38 292.836H889.088V307.564H894.38ZM918.184 310.224C916.224 310.224 914.451 309.795 912.864 308.936C911.296 308.059 910.064 306.864 909.168 305.352C908.272 303.821 907.824 302.104 907.824 300.2C907.824 298.296 908.272 296.588 909.168 295.076C910.064 293.545 911.306 292.351 912.892 291.492C914.479 290.615 916.252 290.176 918.212 290.176C919.743 290.176 921.143 290.437 922.412 290.96C923.682 291.464 924.764 292.22 925.66 293.228L923.84 294.992C922.366 293.443 920.527 292.668 918.324 292.668C916.868 292.668 915.552 292.995 914.376 293.648C913.2 294.301 912.276 295.207 911.604 296.364C910.951 297.503 910.624 298.781 910.624 300.2C910.624 301.619 910.951 302.907 911.604 304.064C912.276 305.203 913.2 306.099 914.376 306.752C915.552 307.405 916.868 307.732 918.324 307.732C920.508 307.732 922.347 306.948 923.84 305.38L925.66 307.144C924.764 308.152 923.672 308.917 922.384 309.44C921.115 309.963 919.715 310.224 918.184 310.224ZM935.171 286.424H937.607L928.367 312.8H925.931L935.171 286.424ZM951.416 295.16V307.984C951.416 310.579 950.772 312.492 949.484 313.724C948.196 314.975 946.273 315.6 943.716 315.6C942.316 315.6 940.981 315.404 939.712 315.012C938.443 314.639 937.416 314.097 936.632 313.388L937.92 311.316C938.611 311.913 939.46 312.38 940.468 312.716C941.495 313.071 942.549 313.248 943.632 313.248C945.368 313.248 946.647 312.837 947.468 312.016C948.308 311.195 948.728 309.944 948.728 308.264V307.088C948.093 307.853 947.309 308.432 946.376 308.824C945.461 309.197 944.463 309.384 943.38 309.384C941.961 309.384 940.673 309.085 939.516 308.488C938.377 307.872 937.481 307.023 936.828 305.94C936.175 304.839 935.848 303.588 935.848 302.188C935.848 300.788 936.175 299.547 936.828 298.464C937.481 297.363 938.377 296.513 939.516 295.916C940.673 295.319 941.961 295.02 943.38 295.02C944.5 295.02 945.536 295.225 946.488 295.636C947.459 296.047 948.252 296.653 948.868 297.456V295.16H951.416ZM943.688 307.032C944.659 307.032 945.527 306.827 946.292 306.416C947.076 306.005 947.683 305.436 948.112 304.708C948.56 303.961 948.784 303.121 948.784 302.188C948.784 300.751 948.308 299.593 947.356 298.716C946.404 297.82 945.181 297.372 943.688 297.372C942.176 297.372 940.944 297.82 939.992 298.716C939.04 299.593 938.564 300.751 938.564 302.188C938.564 303.121 938.779 303.961 939.208 304.708C939.656 305.436 940.263 306.005 941.028 306.416C941.812 306.827 942.699 307.032 943.688 307.032ZM956.552 289.224H959.24V310H956.552V289.224ZM964.372 295.16H967.06V310H964.372V295.16ZM965.716 292.304C965.194 292.304 964.755 292.136 964.4 291.8C964.064 291.464 963.896 291.053 963.896 290.568C963.896 290.083 964.064 289.672 964.4 289.336C964.755 288.981 965.194 288.804 965.716 288.804C966.239 288.804 966.668 288.972 967.004 289.308C967.359 289.625 967.536 290.027 967.536 290.512C967.536 291.016 967.359 291.445 967.004 291.8C966.668 292.136 966.239 292.304 965.716 292.304ZM976.449 310.168C975.235 310.168 974.069 310.009 972.949 309.692C971.829 309.356 970.951 308.936 970.317 308.432L971.437 306.304C972.09 306.771 972.883 307.144 973.817 307.424C974.75 307.704 975.693 307.844 976.645 307.844C978.997 307.844 980.173 307.172 980.173 305.828C980.173 305.38 980.014 305.025 979.697 304.764C979.379 304.503 978.978 304.316 978.493 304.204C978.026 304.073 977.354 303.933 976.477 303.784C975.282 303.597 974.302 303.383 973.537 303.14C972.79 302.897 972.146 302.487 971.605 301.908C971.063 301.329 970.793 300.517 970.793 299.472C970.793 298.128 971.353 297.055 972.473 296.252C973.593 295.431 975.095 295.02 976.981 295.02C977.97 295.02 978.959 295.141 979.949 295.384C980.938 295.627 981.75 295.953 982.385 296.364L981.237 298.492C980.023 297.708 978.595 297.316 976.953 297.316C975.814 297.316 974.946 297.503 974.349 297.876C973.751 298.249 973.453 298.744 973.453 299.36C973.453 299.845 973.621 300.228 973.957 300.508C974.293 300.788 974.703 300.993 975.189 301.124C975.693 301.255 976.393 301.404 977.289 301.572C978.483 301.777 979.445 302.001 980.173 302.244C980.919 302.468 981.554 302.86 982.077 303.42C982.599 303.98 982.861 304.764 982.861 305.772C982.861 307.116 982.282 308.189 981.125 308.992C979.986 309.776 978.427 310.168 976.449 310.168ZM994.564 309.132C994.172 309.468 993.687 309.729 993.108 309.916C992.529 310.084 991.932 310.168 991.316 310.168C989.823 310.168 988.665 309.767 987.844 308.964C987.023 308.161 986.612 307.013 986.612 305.52V297.372H984.092V295.16H986.612V291.912H989.3V295.16H993.556V297.372H989.3V305.408C989.3 306.211 989.496 306.827 989.888 307.256C990.299 307.685 990.877 307.9 991.624 307.9C992.445 307.9 993.145 307.667 993.724 307.2L994.564 309.132ZM1010.73 302.664C1010.73 302.869 1010.71 303.14 1010.68 303.476H998.637C998.805 304.783 999.375 305.837 1000.35 306.64C1001.33 307.424 1002.56 307.816 1004.01 307.816C1005.79 307.816 1007.21 307.219 1008.3 306.024L1009.78 307.76C1009.11 308.544 1008.27 309.141 1007.26 309.552C1006.27 309.963 1005.16 310.168 1003.93 310.168C1002.36 310.168 1000.97 309.851 999.757 309.216C998.544 308.563 997.601 307.657 996.929 306.5C996.276 305.343 995.949 304.036 995.949 302.58C995.949 301.143 996.267 299.845 996.901 298.688C997.555 297.531 998.441 296.635 999.561 296C1000.7 295.347 1001.98 295.02 1003.4 295.02C1004.82 295.02 1006.08 295.347 1007.18 296C1008.3 296.635 1009.17 297.531 1009.78 298.688C1010.42 299.845 1010.73 301.171 1010.73 302.664ZM1003.4 297.288C1002.11 297.288 1001.03 297.68 1000.15 298.464C999.291 299.248 998.787 300.275 998.637 301.544H1008.16C1008.01 300.293 1007.49 299.276 1006.62 298.492C1005.76 297.689 1004.69 297.288 1003.4 297.288ZM1022.39 295.02C1024.28 295.02 1025.77 295.571 1026.87 296.672C1027.99 297.755 1028.55 299.351 1028.55 301.46V310H1025.86V301.768C1025.86 300.331 1025.52 299.248 1024.83 298.52C1024.14 297.792 1023.15 297.428 1021.86 297.428C1020.4 297.428 1019.25 297.857 1018.41 298.716C1017.57 299.556 1017.15 300.769 1017.15 302.356V310H1014.47V295.16H1017.04V297.4C1017.58 296.635 1018.31 296.047 1019.23 295.636C1020.16 295.225 1021.21 295.02 1022.39 295.02Z" fill="black"/>
<path d="M498.336 137.728V214.816C498.336 233.12 493.232 246.848 483.024 256C472.933 265.269 458.501 269.904 439.728 269.904C430.107 269.904 421.131 268.848 412.8 266.736C404.469 264.741 397.371 261.808 391.504 257.936L404.88 230.832C408.635 233.648 413.387 235.936 419.136 237.696C424.885 239.456 430.4 240.336 435.68 240.336C443.659 240.336 449.467 238.635 453.104 235.232C456.741 231.829 458.56 226.843 458.56 220.272V218.512C452.576 225.317 443.717 228.72 431.984 228.72C423.771 228.72 416.085 226.843 408.928 223.088C401.888 219.216 396.256 213.76 392.032 206.72C387.808 199.563 385.696 191.408 385.696 182.256C385.696 173.104 387.808 165.008 392.032 157.968C396.256 150.928 401.888 145.531 408.928 141.776C416.085 137.904 423.771 135.968 431.984 135.968C445.125 135.968 454.629 140.192 460.496 148.64V137.728H498.336ZM442.544 197.744C447.237 197.744 451.109 196.336 454.16 193.52C457.328 190.587 458.912 186.832 458.912 182.256C458.912 177.68 457.328 173.984 454.16 171.168C451.109 168.352 447.237 166.944 442.544 166.944C437.733 166.944 433.744 168.352 430.576 171.168C427.525 173.984 426 177.68 426 182.256C426 186.832 427.584 190.587 430.752 193.52C433.92 196.336 437.851 197.744 442.544 197.744ZM515.925 103.408H555.701V234H515.925V103.408ZM573.331 137.728H613.107V234H573.331V137.728ZM593.219 129.984C586.062 129.984 580.254 128.107 575.795 124.352C571.454 120.48 569.283 115.611 569.283 109.744C569.283 103.877 571.454 99.0667 575.795 95.312C580.254 91.44 586.062 89.504 593.219 89.504C600.494 89.504 606.302 91.3227 610.643 94.96C614.985 98.5973 617.155 103.291 617.155 109.04C617.155 115.141 614.985 120.187 610.643 124.176C606.302 128.048 600.494 129.984 593.219 129.984ZM668.401 235.76C660.188 235.76 652.092 234.88 644.114 233.12C636.135 231.36 629.682 229.072 624.754 226.256L635.666 200.032C640.124 202.731 645.404 204.843 651.506 206.368C657.607 207.893 663.532 208.656 669.282 208.656C673.858 208.656 677.026 208.304 678.786 207.6C680.663 206.779 681.602 205.605 681.602 204.08C681.602 202.555 680.428 201.499 678.082 200.912C675.852 200.325 672.156 199.739 666.994 199.152C659.132 198.213 652.444 197.04 646.93 195.632C641.415 194.107 636.546 191.232 632.322 187.008C628.215 182.784 626.162 176.741 626.162 168.88C626.162 162.661 628.039 157.088 631.794 152.16C635.548 147.232 641.122 143.301 648.514 140.368C656.023 137.435 664.999 135.968 675.442 135.968C682.716 135.968 689.815 136.672 696.738 138.08C703.778 139.371 709.762 141.307 714.69 143.888L703.778 170.112C695.33 165.419 686.06 163.072 675.97 163.072C667.287 163.072 662.946 164.597 662.946 167.648C662.946 169.173 664.119 170.288 666.466 170.992C668.812 171.579 672.508 172.165 677.554 172.752C685.415 173.691 692.044 174.923 697.442 176.448C702.956 177.973 707.767 180.848 711.874 185.072C716.098 189.296 718.21 195.339 718.21 203.2C718.21 209.184 716.332 214.64 712.578 219.568C708.823 224.496 703.191 228.427 695.682 231.36C688.172 234.293 679.079 235.76 668.401 235.76ZM801.181 230.656C795.197 234.059 787.042 235.76 776.717 235.76C763.224 235.76 752.84 232.533 745.565 226.08C738.29 219.509 734.653 209.712 734.653 196.688V172.048H721.453V143.008H734.653V116.08H774.429V143.008H794.141V172.048H774.429V196.336C774.429 199.269 775.192 201.557 776.717 203.2C778.242 204.843 780.237 205.664 782.701 205.664C786.104 205.664 789.096 204.784 791.677 203.024L801.181 230.656ZM911.06 185.776C911.06 186.363 910.884 189.472 910.532 195.104H843.652C845.06 198.741 847.407 201.557 850.692 203.552C853.977 205.429 858.084 206.368 863.012 206.368C867.236 206.368 870.756 205.84 873.572 204.784C876.505 203.728 879.673 201.909 883.076 199.328L903.844 220.272C894.457 230.597 880.436 235.76 861.78 235.76C850.164 235.76 839.956 233.648 831.156 229.424C822.356 225.083 815.551 219.099 810.74 211.472C805.929 203.845 803.524 195.28 803.524 185.776C803.524 176.155 805.871 167.589 810.564 160.08C815.375 152.453 821.887 146.528 830.1 142.304C838.431 138.08 847.759 135.968 858.084 135.968C867.823 135.968 876.681 137.904 884.66 141.776C892.756 145.648 899.151 151.339 903.844 158.848C908.655 166.357 911.06 175.333 911.06 185.776ZM858.436 163.072C854.329 163.072 850.927 164.187 848.228 166.416C845.529 168.645 843.769 171.813 842.948 175.92H873.924C873.103 171.931 871.343 168.821 868.644 166.592C865.945 164.245 862.543 163.072 858.436 163.072ZM990.493 135.968C1002.34 135.968 1011.85 139.547 1019 146.704C1026.28 153.861 1029.92 164.656 1029.92 179.088V234H990.141V185.952C990.141 174.923 986.21 169.408 978.349 169.408C973.89 169.408 970.253 170.992 967.437 174.16C964.738 177.211 963.389 182.08 963.389 188.768V234H923.613V137.728H961.453V147.232C965.207 143.477 969.549 140.661 974.477 138.784C979.405 136.907 984.743 135.968 990.493 135.968Z" fill="black"/>
<g filter="url(#filter0_d)">
<path d="M294 69H104C92.9544 69 84.0001 77.9543 84.0001 89V278.877C84.0001 289.923 92.9544 298.877 104 298.877H294C305.046 298.877 314 289.923 314 278.877V89C314 77.9543 305.046 69 294 69Z" fill="white" stroke="black" stroke-width="10"/>
<path d="M140.244 299.877L84 332V267.755L140.244 299.877Z" stroke="black" stroke-width="10"/>
<path d="M147 290L89.0001 324V256L147 290Z" fill="white"/>
<path d="M204 174C204 154.67 188.33 139 169 139C149.67 139 134 154.67 134 174H204ZM199.131 204.115L183.357 235.359L199.131 243.323L214.906 235.359L199.131 204.115ZM264.262 174C264.262 154.67 248.592 139 229.262 139C209.932 139 194.262 154.67 194.262 174H264.262ZM134 174C134 189.288 141.45 200.714 146.405 206.891C151.782 213.594 158.083 218.898 163.027 222.617C168.174 226.488 173.133 229.591 176.698 231.685C178.516 232.753 180.061 233.61 181.201 234.226C181.773 234.535 182.249 234.786 182.612 234.976C182.794 235.07 182.948 235.15 183.073 235.214C183.135 235.246 183.19 235.274 183.237 235.298C183.261 235.31 183.283 235.321 183.303 235.331C183.313 235.336 183.322 235.341 183.331 235.346C183.336 235.348 183.342 235.351 183.344 235.352C183.351 235.355 183.357 235.359 199.131 204.115C214.906 172.871 214.912 172.874 214.917 172.877C214.919 172.878 214.925 172.881 214.928 172.883C214.936 172.886 214.942 172.89 214.949 172.893C214.961 172.899 214.972 172.905 214.981 172.91C215 172.919 215.012 172.925 215.017 172.928C215.028 172.933 215.013 172.926 214.974 172.905C214.896 172.865 214.724 172.774 214.472 172.638C213.964 172.364 213.155 171.916 212.148 171.325C210.064 170.101 207.49 168.469 205.105 166.675C203.932 165.793 202.955 164.984 202.189 164.282C201.815 163.938 201.529 163.655 201.321 163.437C201.219 163.33 201.143 163.246 201.09 163.186C201.063 163.156 201.044 163.133 201.031 163.117C201.017 163.101 201.011 163.093 201.011 163.093C201.011 163.093 201.013 163.096 201.016 163.1C201.02 163.104 201.025 163.111 201.031 163.12C201.045 163.138 201.066 163.165 201.093 163.203C201.146 163.277 201.23 163.398 201.336 163.565C201.542 163.889 201.878 164.462 202.245 165.283C202.966 166.895 204 169.912 204 174H134ZM199.131 204.115C214.906 235.359 214.912 235.355 214.918 235.352C214.92 235.351 214.927 235.348 214.931 235.346C214.94 235.341 214.95 235.336 214.96 235.331C214.979 235.321 215.001 235.31 215.025 235.298C215.072 235.274 215.127 235.246 215.19 235.214C215.314 235.15 215.469 235.07 215.65 234.976C216.014 234.786 216.489 234.535 217.061 234.226C218.201 233.61 219.746 232.753 221.564 231.685C225.129 229.591 230.088 226.488 235.236 222.617C240.18 218.898 246.481 213.594 251.857 206.891C256.812 200.714 264.262 189.288 264.262 174H194.262C194.262 169.912 195.296 166.895 196.017 165.283C196.385 164.462 196.721 163.889 196.926 163.565C197.032 163.398 197.116 163.277 197.17 163.203C197.197 163.165 197.217 163.138 197.231 163.12C197.238 163.111 197.243 163.104 197.246 163.1C197.25 163.096 197.252 163.093 197.252 163.093C197.252 163.093 197.245 163.101 197.232 163.117C197.219 163.133 197.199 163.156 197.173 163.186C197.12 163.246 197.043 163.33 196.941 163.437C196.734 163.655 196.448 163.938 196.073 164.282C195.308 164.984 194.331 165.793 193.158 166.675C190.772 168.469 188.199 170.101 186.114 171.325C185.108 171.916 184.298 172.364 183.791 172.638C183.539 172.774 183.367 172.865 183.289 172.905C183.25 172.926 183.235 172.933 183.246 172.928C183.251 172.925 183.263 172.919 183.281 172.91C183.29 172.905 183.301 172.899 183.314 172.893C183.32 172.89 183.327 172.886 183.334 172.883C183.338 172.881 183.343 172.878 183.345 172.877C183.351 172.874 183.357 172.871 199.131 204.115Z" fill="#F23232"/>
</g>
<defs>
<filter id="filter0_d" x="75" y="64" width="248" height="284.614" filterUnits="userSpaceOnUse" color-interpolation-filters="sRGB">
<feFlood flood-opacity="0" result="BackgroundImageFix"/>
<feColorMatrix in="SourceAlpha" type="matrix" values="0 0 0 0 0 0 0 0 0 0 0 0 0 0 0 0 0 0 127 0"/>
<feOffset dy="4"/>
<feGaussianBlur stdDeviation="2"/>
<feColorMatrix type="matrix" values="0 0 0 0 0 0 0 0 0 0 0 0 0 0 0 0 0 0 0.25 0"/>
<feBlend mode="normal" in2="BackgroundImageFix" result="effect1_dropShadow"/>
<feBlend mode="normal" in="SourceGraphic" in2="effect1_dropShadow" result="shape"/>
</filter>
</defs>
</svg>
